# xmcd
#
# Track frame offsets: 
#        150
#        25657
#        61124
#        90676
#        121134
#        172432
#        212368
#
# Disc length: 3332 seconds
#
# Revision: 0
# Processed by: cddbd v1.5.2PL0 Copyright (c) Steve Scherf et al.
# Submitted via: ExactAudioCopyFreeDBPlugin 1.0
#
DISCID=550d0207
DTITLE=Layla Zoe - Retrospective Tour 2019 - CD 1
DYEAR=2020
DGENRE=Blues
TTITLE0=She didn't believe
TTITLE1=Leave you for good
TTITLE2=Someday
TTITLE3=Don't wanna hurt nobody
TTITLE4=Never met a man like you
TTITLE5=Little Sister
TTITLE6=Black Oil
EXTD=
EXTT0=
EXTT1=
EXTT2=
EXTT3=
EXTT4=
EXTT5=
EXTT6=
PLAYORDER=
